<svg width="16" height="16" viewBox="0 0 16 16" fill="none" xmlns="http://www.w3.org/2000/svg">
<g clip-path="url(#clip0_539_3024)">
<path fill-rule="evenodd" clip-rule="evenodd" d="M12 12V14C12 14.5304 11.7893 15.0391 11.4142 15.4142C11.0391 15.7893 10.5304 16 10 16H2C1.46957 16 0.960859 15.7893 0.585787 15.4142C0.210714 15.0391 0 14.5304 0 14V6C0 5.46957 0.210714 4.96086 0.585787 4.58579C0.960859 4.21071 1.46957 4 2 4H4V5H2C1.73478 5 1.48043 5.10536 1.29289 5.29289C1.10536 5.48043 1 5.73478 1 6V14C1 14.2652 1.10536 14.5196 1.29289 14.7071C1.48043 14.8946 1.73478 15 2 15H10C10.2652 15 10.5196 14.8946 10.7071 14.7071C10.8946 14.5196 11 14.2652 11 14V12H12Z" fill="black"/>
<path fill-rule="evenodd" clip-rule="evenodd" d="M2.14577e-06 8L0 6C0 5.46957 0.210714 4.96086 0.585787 4.58579C0.960859 4.21071 1.46957 4 2 4L10 4C10.5304 4 11.0391 4.21072 11.4142 4.58579C11.7893 4.96086 12 5.46957 12 6L12 14C12 14.5304 11.7893 15.0391 11.4142 15.4142C11.0391 15.7893 10.5304 16 10 16L8 16L8 15L10 15C10.2652 15 10.5196 14.8946 10.7071 14.7071C10.8946 14.5196 11 14.2652 11 14L11 6C11 5.73479 10.8946 5.48043 10.7071 5.2929C10.5196 5.10536 10.2652 5 10 5L2 5C1.73478 5 1.48043 5.10536 1.29289 5.29289C1.10536 5.48043 1 5.73478 1 6L1 8H2.14577e-06Z" fill="black"/>
<path fill-rule="evenodd" clip-rule="evenodd" d="M15.4142 0.585786C15.7893 0.960859 16 1.46957 16 2V10C16 10.5304 15.7893 11.0391 15.4142 11.4142C15.0391 11.7893 14.5304 12 14 12H12V11H14C14.2652 11 14.5196 10.8946 14.7071 10.7071C14.8946 10.5196 15 10.2652 15 10V2C15 1.73478 14.8946 1.48043 14.7071 1.29289C14.5196 1.10536 14.2652 1 14 1H6C5.73478 1 5.48043 1.10536 5.29289 1.29289C5.10536 1.48043 5 1.73478 5 2V4H4V2C4 1.46957 4.21072 0.960859 4.58579 0.585786C4.96086 0.210714 5.46957 0 6 0H14C14.5304 0 15.0391 0.210714 15.4142 0.585786Z" fill="black"/>
</g>
<defs>
<clipPath id="clip0_539_3024">
<rect width="16" height="16" fill="white"/>
</clipPath>
</defs>
</svg>
