<svg width="16" height="16" viewBox="0 0 16 16" fill="none" xmlns="http://www.w3.org/2000/svg">
<g clip-path="url(#clip0_539_3028)">
<path fill-rule="evenodd" clip-rule="evenodd" d="M15.4142 0.585786C15.7893 0.960859 16 1.46957 16 2L16 14C16 14.5304 15.7893 15.0391 15.4142 15.4142C15.0391 15.7893 14.5304 16 14 16H12V15H14C14.2652 15 14.5196 14.8946 14.7071 14.7071C14.8946 14.5196 15 14.2652 15 14L15 2C15 1.73478 14.8946 1.48043 14.7071 1.29289C14.5196 1.10536 14.2652 1 14 1H2C1.73479 1 1.48043 1.10536 1.2929 1.29289C1.10536 1.48043 1 1.73478 1 2V4H2.14577e-06V2C2.14577e-06 1.46957 0.210717 0.960859 0.58579 0.585786C0.960863 0.210714 1.46957 0 2 0H14C14.5304 0 15.0391 0.210714 15.4142 0.585786Z" fill="black"/>
<path d="M0 6V14C0 14.5304 0.210714 15.0391 0.585787 15.4142C0.960859 15.7893 1.46957 16 2 16H8L8 15L2 15C1.73478 15 1.48043 14.8946 1.29289 14.7071C1.10536 14.5196 1 14.2652 1 14V6L1 5.99781L0 6Z" fill="black"/>
<path d="M1 4H2.14577e-06L0 6L1 5.99781L1 4Z" fill="black"/>
<path d="M8 15L8 16H12V15L8 15Z" fill="black"/>
</g>
<defs>
<clipPath id="clip0_539_3028">
<rect width="16" height="16" fill="white"/>
</clipPath>
</defs>
</svg>
